<?xml version="1.0" encoding="utf-8"?>
<?xml-stylesheet type="text/xsl" href="rss1.xsl"?>
<rss version="2.0" xmlns:atom="http://www.w3.org/2005/Atom" xmlns:content="http://purl.org/rss/1.0/modules/content/" xmlns:dc="http://purl.org/dc/elements/1.1/" xmlns:media="http://search.yahoo.com/mrss/">
<channel>
 <title>Getty</title>
 <link>http://www.gettyimg.com/</link>
 <atom:link href="http://www.gettyimg.com/" rel="self" type="application/rss+xml" />

 
                <item>
                <title><![CDATA[【Cinema Center】MOVIE - 스타워즈: 제다이의 귀환 (에피소드 6) (1983) (KOR-ENG) (1080p DSNP WEB-DL DDP5.1 H.264)]]></title>
                <link><![CDATA[https://sharemania.us/threads/%EC%8A%A4%ED%83%80%EC%9B%8C%EC%A6%88-%EC%A0%9C%EB%8B%A4%EC%9D%B4%EC%9D%98-%EA%B7%80%ED%99%98-%EC%97%90%ED%94%BC%EC%86%8C%EB%93%9C-6-1983-kor-eng-1080p-dsnp-web-dl-ddp5-1-h-264.233573/]]></link>
                <description><![CDATA[<article>
<blockquote class="messageText SelectQuoteContainer ugc baseHtml">
<b>Release Name</b><br>
Star.Wars.Return.of.the.Jedi.Episode.VI.1983.KOR-ENG.1080p.DSNP.WEB-DL.DDP5.1.H.264
<div class="messageTextEndMarker">&nbsp;</div>
</blockquote>
</article>]]></description>
                <author><![CDATA[Austin Zimmermann]]></author>
                </item>

                
                <item>
                <title><![CDATA[【Cinema Center】MOVIE - 스타워즈: 제국의 역습 (에피소드 5) (1980) (KOR-ENG) (1080p DSNP WEB-DL DDP5.1 H.264)]]></title>
                <link><![CDATA[https://sharemania.us/threads/%EC%8A%A4%ED%83%80%EC%9B%8C%EC%A6%88-%EC%A0%9C%EA%B5%AD%EC%9D%98-%EC%97%AD%EC%8A%B5-%EC%97%90%ED%94%BC%EC%86%8C%EB%93%9C-5-1980-kor-eng-1080p-dsnp-web-dl-ddp5-1-h-264.233572/]]></link>
                <description><![CDATA[<article>
<blockquote class="messageText SelectQuoteContainer ugc baseHtml">
<b>Release Name</b><br>
Star.Wars.The.Empire.Strikes.Back.Episode.V.1980.KOR-ENG.1080p.DSNP.WEB-DL.DDP5.1.H.264<br>
<br>
<div class="bbCodeBlock bbCodeCode">
<div class="type">Code:</div>
<pre>General
Complete name                            : Star.Wars.The.Empire.Strikes.Back.Episode.V.1980.KOR-ENG.1080p.DSNP.WEB-DL.DDP5.1.H.264.mp4
Format                                   : MPEG-4
Format profile                           : Base Media
Codec ID                                 : isom (isom/iso2/avc1/mp41)
File size                                : 4.34 GiB
Duration                                 : 2 h 7 min
Overall bit rate mode                    : Variable
Overall bit rate                         : 4 874 kb/s
Frame rate                               : 23.976 FPS
Movie name                               : 스타워즈: 제국의 역습 (에피소드 5)
Performer                                : 마크 해밀,해리슨 포드,캐리 피셔,빌리 디 윌리엄스,앤서니 대니얼스,데이비드 프로우즈
Description                              : 선과 악의 충돌! ‘스타워즈 에피소드 5: 제국의 역습’이 디지털로 최초로 공개된다. 죽음의 별을 폭파시킨 이후, 제국군은 반란군을 추격한다. 루크는 제다이 마스터 요다에게 훈련을 받으러 다고바 행성에 도착한다. 한 솔로와 레아 공주는 한 솔로의 친구인 랜도의 배신으로 다스베이더에게 잡히게 되고, 루크를 다크 포스로 끌어들이기 위한 다스베이더의 계략에 사용된다. 그들을 구출하기 위해 돌아온 루크는 다스베이더와 맞서게 되고, 자신의 과거에 대한 충격적인 사실을 알게 된다.
Recorded date                            : 1980
Writing application                      : Lavf60.3.100
Cover                                    : Yes
Comment                                  : https://www.disneyplus.com/ko-kr/movies/star-wars-the-empire-strikes-back-episode-v/iqtDTZAewwYl

Video
ID                                       : 1
Format                                   : AVC
Format/Info                              : Advanced Video Codec
Format profile                           : High@L4
Format settings                          : CABAC / 4 Ref Frames
Format settings, CABAC                   : Yes
Format settings, Reference frames        : 4 frames
Codec ID                                 : avc1
Codec ID/Info                            : Advanced Video Coding
Duration                                 : 2 h 7 min
Bit rate mode                            : Variable
Bit rate                                 : 4 466 kb/s
Maximum bit rate                         : 8 250 kb/s
Width                                    : 1 920 pixels
Height                                   : 1 080 pixels
Display aspect ratio                     : 16:9
Frame rate mode                          : Constant
Frame rate                               : 23.976 (24000/1001) FPS
Color space                              : YUV
Chroma subsampling                       : 4:2:0
Bit depth                                : 8 bits
Scan type                                : Progressive
Bits/(Pixel*Frame)                       : 0.090
Time code of first frame                 : 00:00:00;01
Stream size                              : 3.98 GiB (92%)
Title                                    : BAMTech video
Color range                              : Limited
Color primaries                          : BT.709
Transfer characteristics                 : BT.709
Matrix coefficients                      : BT.709
Codec configuration box                  : avcC

Audio #1
ID                                       : 3
Format                                   : AAC LC
Format/Info                              : Advanced Audio Codec Low Complexity
Codec ID                                 : 2 / 40 / mp4a-40-2
Duration                                 : 2 h 7 min
Bit rate mode                            : Constant
Bit rate                                 : 125 kb/s
Channel(s)                               : 2 channels
Channel layout                           : L R
Sampling rate                            : 48.0 kHz
Frame rate                               : 46.875 FPS (1024 SPF)
Compression mode                         : Lossy
Stream size                              : 114 MiB (3%)
Title                                    : BAMTech audio / Korean
Language                                 : Korean
Default                                  : Yes
Alternate group                          : 1

Audio #2
ID                                       : 4
Format                                   : AAC LC
Format/Info                              : Advanced Audio Codec Low Complexity
Codec ID                                 : 2 / 40 / mp4a-40-2
Duration                                 : 2 h 7 min
Bit rate mode                            : Constant
Bit rate                                 : 125 kb/s
Channel(s)                               : 2 channels
Channel layout                           : L R
Sampling rate                            : 48.0 kHz
Frame rate                               : 46.875 FPS (1024 SPF)
Compression mode                         : Lossy
Stream size                              : 114 MiB (3%)
Title                                    : BAMTech audio / English
Language                                 : English
Default                                  : No
Alternate group                          : 1

Audio #3
ID                                       : 5
Format                                   : AAC LC
Format/Info                              : Advanced Audio Codec Low Complexity
Codec ID                                 : 2 / 40 / mp4a-40-2
Duration                                 : 2 h 7 min
Bit rate mode                            : Constant
Bit rate                                 : 125 kb/s
Channel(s)                               : 2 channels
Channel layout                           : L R
Sampling rate                            : 48.0 kHz
Frame rate                               : 46.875 FPS (1024 SPF)
Compression mode                         : Lossy
Stream size                              : 114 MiB (3%)
Title                                    : BAMTech audio / English [Audio Description]
Language                                 : English
Default                                  : No
Alternate group                          : 1

Text #1
ID                                       : 6
Format                                   : Timed Text
Muxing mode                              : sbtl
Codec ID                                 : tx3g
Duration                                 : 2 h 1 min
Bit rate mode                            : Variable
Bit rate                                 : 56 b/s
Frame rate                               : 0.425 FPS
Stream size                              : 50.0 KiB (0%)
Title                                    : English [CC]
Language                                 : English
Default                                  : No
Forced                                   : No
Alternate group                          : 3
Count of events                          : 1551

Text #2
ID                                       : 7
Format                                   : Timed Text
Muxing mode                              : sbtl
Codec ID                                 : tx3g
Duration                                 : 2 h 2 min
Bit rate mode                            : Variable
Bit rate                                 : 52 b/s
Frame rate                               : 0.288 FPS
Stream size                              : 46.2 KiB (0%)
Title                                    : Korean
Language                                 : Korean
Default                                  : Yes
Forced                                   : No
Alternate group                          : 3
Count of events                          : 1052
</pre>
</div>
<div class="messageTextEndMarker">&nbsp;</div>
</blockquote>
</article>]]></description>
                <author><![CDATA[Austin Zimmermann]]></author>
                </item>

                </channel></rss>